<svg width="266" height="101" viewBox="0 0 266 101" fill="none" xmlns="http://www.w3.org/2000/svg">
<g filter="url(#filter0_d_19_238)">
<path d="M112 1H154C216 1 194 101 262 101H4C72 101 50 1 112 1Z" fill="url(#paint0_linear_19_238)" shape-rendering="crispEdges"/>
<path d="M4 101V101.25H262V101V100.75C245.074 100.75 233.765 94.5321 225.342 85.2074C216.905 75.8681 211.357 63.4073 205.98 50.9012C205.73 50.3199 205.48 49.7385 205.231 49.1573C200.12 37.2523 195.048 25.4366 187.662 16.4661C179.901 7.0401 169.583 0.75 154 0.75H112C96.417 0.75 86.099 7.0401 78.3382 16.4661C70.9525 25.4366 65.8801 37.2523 60.7694 49.1572C60.5199 49.7384 60.2703 50.3199 60.0203 50.9012C54.6427 63.4073 49.0947 75.8681 40.6582 85.2074C32.235 94.5321 20.9265 100.75 4 100.75V101Z" stroke="#7582F4" stroke-opacity="0.5" stroke-width="0.5" shape-rendering="crispEdges"/>
</g>
<defs>
<filter id="filter0_d_19_238" x="0" y="0.5" width="266" height="109" filterUnits="userSpaceOnUse" color-interpolation-filters="sRGB">
<feFlood flood-opacity="0" result="BackgroundImageFix"/>
<feColorMatrix in="SourceAlpha" type="matrix" values="0 0 0 0 0 0 0 0 0 0 0 0 0 0 0 0 0 0 127 0" result="hardAlpha"/>
<feOffset dy="4"/>
<feGaussianBlur stdDeviation="2"/>
<feComposite in2="hardAlpha" operator="out"/>
<feColorMatrix type="matrix" values="0 0 0 0 0.458824 0 0 0 0 0.509804 0 0 0 0 0.956863 0 0 0 1 0"/>
<feBlend mode="normal" in2="BackgroundImageFix" result="effect1_dropShadow_19_238"/>
<feBlend mode="normal" in="SourceGraphic" in2="effect1_dropShadow_19_238" result="shape"/>
</filter>
<linearGradient id="paint0_linear_19_238" x1="133" y1="1" x2="133" y2="101" gradientUnits="userSpaceOnUse">
<stop stop-color="#262C51"/>
<stop offset="1" stop-color="#3E3F74"/>
</linearGradient>
</defs>
</svg>
